<svg width="507" height="132" viewBox="0 0 507 132" fill="none" xmlns="http://www.w3.org/2000/svg">
<g clip-path="url(#clip0_1_58)">
<mask id="mask0_1_58" style="mask-type:luminance" maskUnits="userSpaceOnUse" x="0" y="0" width="507" height="132">
<path d="M507 0H0V132H507V0Z" fill="white"/>
</mask>
<g mask="url(#mask0_1_58)">
<path d="M104.273 20H58.111C56.0527 20 54.3841 21.6686 54.3841 23.7269V70.4044C54.3841 72.4627 56.0527 74.1313 58.111 74.1313H104.273C106.331 74.1313 108 72.4627 108 70.4044V23.7269C108 21.6686 106.331 20 104.273 20Z" fill="black"/>
<path d="M51.703 70.414V39.283H40.98C38.92 39.283 37.25 40.947 37.25 43V89.348C37.25 91.401 38.92 93.066 40.98 93.066H87.311C89.371 93.066 91.041 91.401 91.041 89.348V76.919H58.23C54.626 76.919 51.703 74.007 51.703 70.414Z" fill="black"/>
<path d="M34.453 89.348V58.217H23.73C21.67 58.217 20 59.881 20 61.934V108.283C20 110.336 21.67 112 23.73 112H70.061C72.121 112 73.791 110.336 73.791 108.283V95.854H40.98C37.375 95.854 34.453 92.941 34.453 89.348Z" fill="black"/>
<path d="M161.888 87.512C158.731 87.512 155.787 87.0213 153.056 86.04C150.368 85.0587 148.107 83.5013 146.272 81.368C144.48 79.2347 143.349 76.4827 142.88 73.112H152.224C152.608 74.5627 153.312 75.736 154.336 76.632C155.36 77.4853 156.576 78.104 157.984 78.488C159.435 78.872 160.949 79.064 162.528 79.064C163.723 79.064 164.896 78.9147 166.048 78.616C167.2 78.3173 168.139 77.8053 168.864 77.08C169.632 76.3547 170.016 75.3733 170.016 74.136C170.016 73.1973 169.803 72.4293 169.376 71.832C168.992 71.2347 168.416 70.7653 167.648 70.424C166.923 70.04 166.027 69.6987 164.96 69.4C164.064 69.144 163.125 68.9307 162.144 68.76C161.205 68.5893 160.267 68.376 159.328 68.12C158.432 67.864 157.557 67.5653 156.704 67.224C155.083 66.7973 153.525 66.2853 152.032 65.688C150.539 65.048 149.216 64.2587 148.064 63.32C146.912 62.3387 145.995 61.1227 145.312 59.672C144.672 58.2213 144.352 56.472 144.352 54.424C144.352 52.2053 144.715 50.328 145.44 48.792C146.208 47.256 147.211 45.9973 148.448 45.016C149.728 43.992 151.136 43.2027 152.672 42.648C154.251 42.0933 155.829 41.7093 157.408 41.496C158.987 41.2827 160.48 41.176 161.888 41.176C164.832 41.176 167.477 41.688 169.824 42.712C172.171 43.736 174.091 45.272 175.584 47.32C177.077 49.368 177.931 51.9493 178.144 55.064H169.248C169.077 53.784 168.608 52.7387 167.84 51.928C167.072 51.1173 166.091 50.52 164.896 50.136C163.744 49.752 162.443 49.56 160.992 49.56C160.053 49.56 159.136 49.6453 158.24 49.816C157.344 49.9867 156.533 50.264 155.808 50.648C155.125 50.9893 154.571 51.4587 154.144 52.056C153.76 52.6533 153.568 53.3787 153.568 54.232C153.568 55.0853 153.803 55.832 154.272 56.472C154.741 57.0693 155.424 57.6027 156.32 58.072C157.259 58.4987 158.347 58.904 159.584 59.288C160.864 59.7147 162.208 60.056 163.616 60.312C165.024 60.568 166.368 60.9093 167.648 61.336C169.269 61.7627 170.784 62.2747 172.192 62.872C173.6 63.4267 174.837 64.152 175.904 65.048C176.971 65.9013 177.803 67.0107 178.4 68.376C178.997 69.6987 179.296 71.3413 179.296 73.304C179.296 75.9067 178.805 78.1253 177.824 79.96C176.885 81.752 175.584 83.2027 173.92 84.312C172.299 85.4213 170.443 86.232 168.352 86.744C166.261 87.256 164.107 87.512 161.888 87.512Z" fill="black"/>
<path d="M199.53 87.448C195.733 87.448 192.917 86.3813 191.082 84.248C189.29 82.1147 188.394 79.192 188.394 75.48V61.272H183.338V53.272H188.394V44.184H197.354V53.272H207.594V61.272H197.354V73.624C197.354 74.7333 197.482 75.6933 197.738 76.504C198.037 77.3147 198.506 77.9547 199.146 78.424C199.829 78.8507 200.746 79.064 201.898 79.064C202.922 79.064 203.775 78.9147 204.458 78.616C205.183 78.2747 205.781 77.912 206.25 77.528L209.066 84.44C208.17 85.1653 207.167 85.7627 206.058 86.232C204.991 86.6587 203.903 86.9573 202.794 87.128C201.685 87.3413 200.597 87.448 199.53 87.448Z" fill="black"/>
<path d="M228.066 87.448C223.117 87.448 219.298 86.1893 216.61 83.672C213.965 81.112 212.642 77.272 212.642 72.152V53.272H221.602V71.512C221.602 73.048 221.815 74.4133 222.242 75.608C222.711 76.76 223.415 77.6773 224.354 78.36C225.335 79.0427 226.594 79.384 228.13 79.384C229.794 79.384 231.074 79.0213 231.97 78.296C232.866 77.5707 233.485 76.6107 233.826 75.416C234.167 74.1787 234.338 72.8773 234.338 71.512V53.272H243.234V72.152C243.234 77.4853 241.89 81.368 239.202 83.8C236.557 86.232 232.845 87.448 228.066 87.448Z" fill="black"/>
<path d="M264.096 87.448C260.682 87.448 257.845 86.68 255.584 85.144C253.365 83.5653 251.701 81.4747 250.592 78.872C249.482 76.2267 248.928 73.304 248.928 70.104C248.928 66.7333 249.525 63.7467 250.72 61.144C251.914 58.4987 253.685 56.4293 256.032 54.936C258.378 53.4427 261.301 52.696 264.8 52.696C265.994 52.696 267.168 52.8453 268.32 53.144C269.514 53.4 270.602 53.8053 271.584 54.36C272.608 54.872 273.482 55.5547 274.208 56.408V41.688H283.168V87H274.464L274.336 83.224C273.568 84.2053 272.629 85.016 271.52 85.656C270.453 86.2533 269.301 86.7013 268.064 87C266.826 87.2987 265.504 87.448 264.096 87.448ZM265.888 79.384C267.808 79.384 269.365 78.936 270.56 78.04C271.797 77.144 272.714 75.992 273.312 74.584C273.909 73.176 274.208 71.6613 274.208 70.04C274.208 68.376 273.909 66.8613 273.312 65.496C272.757 64.088 271.861 62.9787 270.624 62.168C269.429 61.3147 267.85 60.888 265.888 60.888C263.925 60.888 262.346 61.336 261.152 62.232C259.957 63.128 259.104 64.3013 258.592 65.752C258.122 67.16 257.888 68.6747 257.888 70.296C257.888 71.4907 258.016 72.6427 258.272 73.752C258.57 74.8187 259.04 75.7787 259.68 76.632C260.32 77.4853 261.152 78.168 262.176 78.68C263.2 79.1493 264.437 79.384 265.888 79.384Z" fill="black"/>
<path d="M290.208 87V53.272H299.168V87H290.208ZM294.688 49.88C293.024 49.88 291.68 49.3893 290.656 48.408C289.632 47.384 289.12 46.0827 289.12 44.504C289.12 42.84 289.653 41.496 290.719 40.472C291.786 39.448 293.13 38.936 294.752 38.936C296.245 38.936 297.525 39.448 298.592 40.472C299.701 41.4533 300.256 42.776 300.256 44.44C300.256 46.0613 299.722 47.384 298.656 48.408C297.632 49.3893 296.309 49.88 294.688 49.88Z" fill="black"/>
<path d="M322.014 87.448C318.601 87.448 315.614 86.7653 313.054 85.4C310.494 83.992 308.51 82.008 307.102 79.448C305.694 76.8453 304.99 73.7733 304.99 70.232C304.99 66.6053 305.694 63.4907 307.102 60.888C308.553 58.2427 310.558 56.216 313.118 54.808C315.678 53.4 318.622 52.696 321.95 52.696C325.363 52.696 328.329 53.4213 330.846 54.872C333.363 56.3227 335.326 58.3493 336.734 60.952C338.142 63.5547 338.846 66.6693 338.846 70.296C338.846 73.8373 338.142 76.9093 336.734 79.512C335.369 82.072 333.427 84.0347 330.91 85.4C328.435 86.7653 325.47 87.448 322.014 87.448ZM321.886 79.256C323.849 79.256 325.427 78.8293 326.622 77.976C327.817 77.1227 328.67 76.0133 329.182 74.648C329.737 73.24 330.014 71.768 330.014 70.232C330.014 68.696 329.737 67.224 329.182 65.816C328.67 64.408 327.817 63.256 326.622 62.36C325.47 61.4213 323.891 60.952 321.886 60.952C319.966 60.952 318.409 61.4213 317.214 62.36C316.019 63.256 315.145 64.408 314.59 65.816C314.078 67.224 313.822 68.696 313.822 70.232C313.822 71.8107 314.078 73.2827 314.59 74.648C315.145 76.0133 316.019 77.1227 317.214 77.976C318.409 78.8293 319.966 79.256 321.886 79.256Z" fill="black"/>
<path d="M365.191 87.512C360.54 87.512 356.572 86.5733 353.286 84.696C350.044 82.776 347.569 80.088 345.863 76.632C344.199 73.176 343.367 69.144 343.367 64.536C343.367 59.8427 344.22 55.7467 345.926 52.248C347.676 48.7493 350.172 46.04 353.415 44.12C356.657 42.1573 360.561 41.176 365.127 41.176C368.583 41.176 371.676 41.7733 374.407 42.968C377.137 44.12 379.335 45.848 380.999 48.152C382.705 50.4133 383.772 53.208 384.199 56.536H375.367C374.812 54.4453 373.681 52.8027 371.975 51.608C370.311 50.3707 368.092 49.752 365.319 49.752C362.247 49.752 359.793 50.456 357.959 51.864C356.167 53.2293 354.865 55.0213 354.055 57.24C353.244 59.416 352.839 61.72 352.839 64.152C352.839 66.6693 353.265 69.0587 354.118 71.32C354.972 73.5813 356.316 75.416 358.151 76.824C360.028 78.232 362.481 78.936 365.511 78.936C367.303 78.936 368.903 78.68 370.311 78.168C371.719 77.6133 372.871 76.824 373.767 75.8C374.705 74.776 375.345 73.56 375.687 72.152H384.839C384.455 75.4373 383.345 78.232 381.511 80.536C379.676 82.84 377.351 84.5893 374.535 85.784C371.719 86.936 368.604 87.512 365.191 87.512Z" fill="black"/>
<path d="M391.55 87V41.688H403.71L415.806 63.576L427.774 41.688H439.486V87H430.334V53.912L417.47 76.888H413.758L400.702 53.912V87H391.55Z" fill="black"/>
<path d="M466.201 87.512C463.043 87.512 460.099 87.0213 457.368 86.04C454.68 85.0587 452.419 83.5013 450.585 81.368C448.793 79.2347 447.662 76.4827 447.193 73.112H456.536C456.92 74.5627 457.624 75.736 458.648 76.632C459.672 77.4853 460.889 78.104 462.297 78.488C463.747 78.872 465.262 79.064 466.841 79.064C468.035 79.064 469.209 78.9147 470.361 78.616C471.513 78.3173 472.451 77.8053 473.177 77.08C473.945 76.3547 474.328 75.3733 474.328 74.136C474.328 73.1973 474.115 72.4293 473.689 71.832C473.305 71.2347 472.729 70.7653 471.961 70.424C471.235 70.04 470.339 69.6987 469.272 69.4C468.376 69.144 467.438 68.9307 466.457 68.76C465.518 68.5893 464.579 68.376 463.641 68.12C462.745 67.864 461.87 67.5653 461.017 67.224C459.395 66.7973 457.838 66.2853 456.345 65.688C454.851 65.048 453.528 64.2587 452.376 63.32C451.224 62.3387 450.307 61.1227 449.625 59.672C448.985 58.2213 448.664 56.472 448.664 54.424C448.664 52.2053 449.027 50.328 449.753 48.792C450.521 47.256 451.523 45.9973 452.76 45.016C454.04 43.992 455.448 43.2027 456.984 42.648C458.563 42.0933 460.142 41.7093 461.721 41.496C463.299 41.2827 464.793 41.176 466.201 41.176C469.145 41.176 471.79 41.688 474.137 42.712C476.483 43.736 478.403 45.272 479.897 47.32C481.39 49.368 482.243 51.9493 482.457 55.064H473.561C473.39 53.784 472.92 52.7387 472.152 51.928C471.384 51.1173 470.403 50.52 469.208 50.136C468.056 49.752 466.755 49.56 465.305 49.56C464.366 49.56 463.449 49.6453 462.553 49.816C461.657 49.9867 460.846 50.264 460.121 50.648C459.438 50.9893 458.883 51.4587 458.457 52.056C458.073 52.6533 457.88 53.3787 457.88 54.232C457.88 55.0853 458.115 55.832 458.585 56.472C459.054 57.0693 459.737 57.6027 460.633 58.072C461.571 58.4987 462.659 58.904 463.897 59.288C465.177 59.7147 466.52 60.056 467.928 60.312C469.336 60.568 470.681 60.9093 471.961 61.336C473.582 61.7627 475.097 62.2747 476.505 62.872C477.913 63.4267 479.15 64.152 480.217 65.048C481.283 65.9013 482.115 67.0107 482.712 68.376C483.31 69.6987 483.609 71.3413 483.609 73.304C483.609 75.9067 483.118 78.1253 482.137 79.96C481.198 81.752 479.897 83.2027 478.233 84.312C476.611 85.4213 474.755 86.232 472.665 86.744C470.574 87.256 468.419 87.512 466.201 87.512Z" fill="black"/>
</g>
</g>
<defs>
<clipPath id="clip0_1_58">
<rect width="507" height="132" fill="white"/>
</clipPath>
</defs>
</svg>
