<svg width="820" height="240" viewBox="0 0 820 240" fill="none" xmlns="http://www.w3.org/2000/svg">
<path d="M209.055 35V65.78L194.515 69.53L185.405 58.56L180.595 68.02C170.675 65.32 157.015 63.58 138.225 63.58C119.435 63.58 105.775 65.33 95.855 68.02L91.0449 58.56L81.9351 69.53L67.395 65.78V35C67.395 35 42.9051 55.67 38.2351 83.61L70.375 94.73C71.425 114.16 80.165 166.61 82.665 171.37C85.325 176.44 99.4451 190.93 110.495 196.5C110.495 196.5 114.495 192.27 116.935 188.54C120.035 192.19 136.045 204.99 138.235 204.99C140.425 204.99 156.435 192.19 159.535 188.54C161.975 192.27 165.975 196.5 165.975 196.5C177.025 190.93 191.145 176.44 193.805 171.37C196.305 166.61 205.045 114.16 206.095 94.73L238.235 83.61C233.545 55.67 209.055 35 209.055 35ZM192.015 128.36L170.265 130.3L172.175 156.97C172.175 156.97 158.945 167.92 138.215 167.92C117.485 167.92 104.255 156.97 104.255 156.97L106.165 130.3L84.415 128.36L80.6951 98.32L116.745 110.8L113.945 148.19C120.645 149.89 127.695 151.58 138.225 151.58C148.755 151.58 155.795 149.89 162.495 148.19L159.695 110.8L195.745 98.32L192.025 128.36H192.015Z" fill="white"/>
<path d="M277.515 84.42L308.585 88.24V177.83H336.545V88.24L367.445 84.42V62.17H277.515V84.42Z" fill="white"/>
<path d="M443.795 131.53C443.795 144.57 437.435 153.76 424.205 153.76C410.975 153.76 404.275 144.74 404.275 131.7V62.17H376.315V131.7C376.315 160.61 391.215 180 423.875 180C456.535 180 471.765 159.44 471.765 131.53V62.17H443.805V131.53H443.795Z" fill="white"/>
<path d="M561.845 96.6C561.845 74.71 549.615 62.17 525.345 62.17H485.495V177.82H513.295V130.35H520.835L543.605 177.82H573.575L547.115 125.01C556.495 119.33 561.855 109.47 561.855 96.6H561.845ZM522.995 107.63H513.285V86.24H522.995C529.185 86.24 533.035 90.42 533.035 96.77C533.035 103.12 529.355 107.63 522.995 107.63Z" fill="white"/>
<path d="M625.975 109.47L611.405 103.79C603.535 100.78 600.855 97.44 600.855 92.59C600.855 87.74 604.035 83.9 610.405 83.9C616.775 83.9 620.615 88.91 620.455 96.1H646.235C647.415 75.54 637.535 60 610.235 60C587.635 60 572.895 74.04 572.895 94.26C572.895 108.3 579.085 119.66 590.815 125.68C597.175 128.86 603.035 131.03 608.895 133.37C616.425 136.21 621.115 139.39 621.115 145.9C621.115 152.41 616.425 156.1 610.065 156.1C600.855 156.1 598.005 148.91 598.345 141.56H571.885C570.885 158.44 576.905 180 610.065 180C633.335 180 649.915 166.3 649.915 142.9C649.915 125.69 641.035 115.66 625.965 109.47H625.975Z" fill="white"/>
<path d="M716.065 60C680.405 60 655.955 86.57 655.955 120.17C655.955 153.77 679.065 180 716.905 180C754.745 180 777.525 153.43 777.525 119.67C777.525 85.91 753.915 60 716.065 60ZM716.735 153.93C697.475 153.93 685.255 139.06 685.255 120C685.255 100.94 696.145 86.07 716.565 86.07C736.985 86.07 748.215 101.11 748.215 120C748.215 138.89 737.165 153.93 716.735 153.93Z" fill="white"/>
</svg>
