<svg width="621" height="240" viewBox="0 0 621 240" fill="none" xmlns="http://www.w3.org/2000/svg">
<path d="M60.9451 84.42L92.0051 88.24V177.83H119.975V88.24L150.865 84.42V62.17H60.9451V84.42Z" fill="white"/>
<path d="M227.225 131.53C227.225 144.57 220.865 153.76 207.635 153.76C194.405 153.76 187.705 144.74 187.705 131.7V62.17H159.745V131.7C159.745 160.61 174.645 180 207.305 180C239.965 180 255.195 159.44 255.195 131.53V62.17H227.235V131.53H227.225Z" fill="white"/>
<path d="M345.265 96.6C345.265 74.71 333.035 62.17 308.765 62.17H268.915V177.83H296.715V130.36H304.255L327.025 177.83H356.995L330.535 125.02C339.915 119.34 345.275 109.48 345.275 96.61L345.265 96.6ZM306.415 107.63H296.705V86.24H306.415C312.605 86.24 316.455 90.42 316.455 96.77C316.455 103.12 312.775 107.63 306.415 107.63Z" fill="white"/>
<path d="M409.405 109.47L394.835 103.79C386.965 100.78 384.285 97.44 384.285 92.59C384.285 87.74 387.465 83.9 393.835 83.9C400.205 83.9 404.045 88.91 403.885 96.1H429.665C430.845 75.54 420.965 60 393.665 60C371.065 60 356.325 74.04 356.325 94.26C356.325 108.3 362.515 119.66 374.245 125.68C380.605 128.86 386.465 131.03 392.325 133.37C399.855 136.21 404.545 139.39 404.545 145.9C404.545 152.41 399.855 156.1 393.495 156.1C384.285 156.1 381.435 148.91 381.775 141.56H355.315C354.315 158.44 360.335 180 393.495 180C416.765 180 433.345 166.3 433.345 142.9C433.345 125.69 424.465 115.66 409.395 109.47H409.405Z" fill="white"/>
<path d="M499.485 60C463.825 60 439.375 86.57 439.375 120.17C439.375 153.77 462.485 180 500.325 180C538.165 180 560.945 153.43 560.945 119.67C560.945 85.91 537.335 60 499.485 60ZM500.155 153.93C480.895 153.93 468.675 139.06 468.675 120C468.675 100.94 479.565 86.07 499.985 86.07C520.405 86.07 531.635 101.11 531.635 120C531.635 138.89 520.585 153.93 500.155 153.93Z" fill="white"/>
</svg>
