<svg width="621" height="240" viewBox="0 0 621 240" fill="none" xmlns="http://www.w3.org/2000/svg">
<path d="M60.0549 84.42L91.1249 88.24V177.83H119.085V88.24L149.975 84.42V62.17H60.0549V84.42Z" fill="#183134"/>
<path d="M226.335 131.53C226.335 144.57 219.975 153.76 206.745 153.76C193.515 153.76 186.815 144.74 186.815 131.7V62.17H158.855V131.7C158.855 160.61 173.755 180 206.415 180C239.075 180 254.305 159.44 254.305 131.53V62.17H226.345V131.53H226.335Z" fill="#183134"/>
<path d="M344.375 96.6C344.375 74.71 332.145 62.17 307.875 62.17H268.025V177.83H295.825V130.36H303.365L326.135 177.83H356.105L329.645 125.02C339.025 119.34 344.385 109.48 344.385 96.61L344.375 96.6ZM305.525 107.63H295.815V86.24H305.525C311.715 86.24 315.565 90.42 315.565 96.77C315.565 103.12 311.885 107.63 305.525 107.63Z" fill="#183134"/>
<path d="M408.515 109.47L393.945 103.79C386.075 100.78 383.395 97.44 383.395 92.59C383.395 87.74 386.575 83.9 392.945 83.9C399.315 83.9 403.155 88.91 402.995 96.1H428.775C429.955 75.54 420.075 60 392.775 60C370.175 60 355.435 74.04 355.435 94.26C355.435 108.3 361.625 119.66 373.355 125.68C379.715 128.86 385.575 131.03 391.435 133.37C398.965 136.21 403.655 139.39 403.655 145.9C403.655 152.41 398.965 156.1 392.605 156.1C383.395 156.1 380.545 148.91 380.885 141.56H354.425C353.425 158.44 359.445 180 392.605 180C415.875 180 432.455 166.3 432.455 142.9C432.455 125.69 423.575 115.66 408.505 109.47H408.515Z" fill="#183134"/>
<path d="M498.595 60C462.935 60 438.485 86.57 438.485 120.17C438.485 153.77 461.595 180 499.435 180C537.275 180 560.055 153.43 560.055 119.67C560.055 85.91 536.445 60 498.595 60ZM499.265 153.93C480.005 153.93 467.785 139.06 467.785 120C467.785 100.94 478.675 86.07 499.095 86.07C519.515 86.07 530.745 101.11 530.745 120C530.745 138.89 519.695 153.93 499.265 153.93Z" fill="#183134"/>
</svg>
