<svg width="241" height="240" viewBox="0 0 241 240" fill="none" xmlns="http://www.w3.org/2000/svg">
<path d="M120.055 205C117.865 205 101.855 192.2 98.7549 188.55C96.3149 192.28 92.3149 196.51 92.3149 196.51C81.2649 190.94 67.1449 176.45 64.4849 171.38C61.8649 166.38 52.3549 108.8 52.0949 92.08C51.7549 82.67 57.9449 63.59 120.055 63.59C182.165 63.59 188.345 82.67 188.015 92.08C187.765 108.8 178.255 166.38 175.625 171.38C172.965 176.45 158.845 190.94 147.795 196.51C147.795 196.51 143.795 192.28 141.355 188.55C138.255 192.2 122.245 205 120.055 205Z" fill="#1EBCA1"/>
<path d="M120.055 167.92C99.3249 167.92 86.0949 156.97 86.0949 156.97L88.0049 130.3L66.2549 128.36L62.3449 96.81H177.775L173.865 128.36L152.115 130.3L154.025 156.97C154.025 156.97 140.795 167.92 120.065 167.92H120.055Z" fill="#183134"/>
<path d="M141.535 110.79L220.055 83.61C215.385 55.67 190.895 35 190.895 35V65.78L176.355 69.53L167.245 58.56L159.445 73.9L120.065 84.06L80.6849 73.9L72.8849 58.56L63.7749 69.53L49.2349 65.78V35C49.2349 35 24.7249 55.67 20.0549 83.61L98.5749 110.79L95.7749 148.18C102.475 149.88 109.525 151.57 120.055 151.57C130.585 151.57 137.625 149.88 144.325 148.18L141.525 110.79H141.535Z" fill="#4FF8D2"/>
</svg>
