<svg width="108" xmlns="http://www.w3.org/2000/svg" height="108" id="screenshot-680b3183-b32f-80e4-8005-f6012564a1bd" viewBox="0 0 108 108" xmlns:xlink="http://www.w3.org/1999/xlink" fill="none" version="1.1"><g id="shape-680b3183-b32f-80e4-8005-f6012564a1bd"><defs><clipPath id="frame-clip-680b3183-b32f-80e4-8005-f6012564a1bd-render-1" class="frame-clip frame-clip-def"><rect rx="0" ry="0" x="0" y="0" width="108" height="108" transform="matrix(1.000000, 0.000000, 0.000000, 1.000000, 0.000000, 0.000000)"/></clipPath></defs><g><g><g clip-path="url(#frame-clip-680b3183-b32f-80e4-8005-f6012564a1bd-render-1)" fill="none"><g class="fills" id="fills-680b3183-b32f-80e4-8005-f6012564a1bd"><rect rx="0" ry="0" x="0" y="0" width="108" height="108" transform="matrix(1.000000, 0.000000, 0.000000, 1.000000, 0.000000, 0.000000)" class="frame-background"/></g><g class="frame-children"><g id="shape-680b3183-b32f-80e4-8005-f6012171a43b" width="755" height="792" rx="0" ry="0" style="fill: rgb(0, 0, 0);"><g id="shape-680b3183-b32f-80e4-8005-f6012171a43c" style="display: none;"><g class="fills" id="fills-680b3183-b32f-80e4-8005-f6012171a43c"><rect width="88" height="92" x="10" transform="matrix(1.000000, 0.000000, 0.000000, 1.000000, 0.000000, 0.000000)" style="fill: none;" ry="0" fill="none" rx="0" y="8"/></g></g><g id="shape-680b3183-b32f-80e4-8005-f6012171a43d"><g class="fills" id="fills-680b3183-b32f-80e4-8005-f6012171a43d"><rect rx="3.7269221179621987" ry="3.7269221179621987" x="44.384105960263696" y="8" transform="matrix(1.000000, 0.000000, 0.000000, 1.000000, 0.000000, 0.000000)" width="53.615894039736304" height="54.13131313131316" style="fill: rgb(0, 0, 0);"/></g></g><g id="shape-680b3183-b32f-80e4-8005-f6012171a43e"><g class="fills" id="fills-680b3183-b32f-80e4-8005-f6012171a43e"><path d="M41.703,58.414L41.703,27.283L30.980,27.283C28.920,27.283,27.250,28.947,27.250,31.000L27.250,77.348C27.250,79.401,28.920,81.066,30.980,81.066L77.311,81.066C79.371,81.066,81.041,79.401,81.041,77.348L81.041,64.919L48.230,64.919C44.626,64.919,41.703,62.007,41.703,58.414ZZ" style="fill: rgb(0, 0, 0);"/></g></g><g id="shape-680b3183-b32f-80e4-8005-f6012171a43f"><g class="fills" id="fills-680b3183-b32f-80e4-8005-f6012171a43f"><path d="M24.453,77.348L24.453,46.217L13.730,46.217C11.670,46.217,10.000,47.881,10.000,49.934L10.000,96.283C10.000,98.336,11.670,100.000,13.730,100.000L60.061,100.000C62.121,100.000,63.791,98.336,63.791,96.283L63.791,83.854L30.980,83.854C27.375,83.854,24.453,80.941,24.453,77.348ZZ" style="fill: rgb(0, 0, 0);"/></g></g></g></g></g></g></g></g></svg>