<?xml version="1.0" encoding="UTF-8"?>
<svg width="1000px" height="200px" viewBox="0 0 1000 200" version="1.1" xmlns="http://www.w3.org/2000/svg" xmlns:xlink="http://www.w3.org/1999/xlink">
    <title>Hostinger_Horizontal_White</title>
    <g id="Page-2" stroke="none" stroke-width="1" fill="none" fill-rule="evenodd">
        <g id="Hostinger_Horizontal_White" fill="#FFFFFF" fill-rule="nonzero">
            <polygon id="Fill-1" points="300.778587 58.3969663 319.612247 58.3969663 319.612247 141.835562 300.778587 141.835562 300.778587 106.437421 269.149447 106.437421 269.149447 141.835562 250.315787 141.835562 250.315787 58.3969663 269.149447 58.3969663 269.149447 90.3015928 300.778587 90.3015928"></polygon>
            <g id="Group-14" transform="translate(344.398478, 55.568539)">
                <path d="M19.5442027,43.9586391 C19.5442027,48.064292 20.0425769,51.7695171 21.0426815,55.0726246 C22.042786,58.3774219 23.4842119,61.215898 25.365281,63.5914322 C27.2413161,65.9703456 29.5435702,67.8001489 32.2653314,69.0876005 C34.9837364,70.3801209 38.1031901,71.0255362 41.6253704,71.0255362 C45.0636493,71.0255362 48.1646447,70.3801209 50.9266785,69.0876005 C53.6836782,67.8001489 56.0060686,65.9703456 57.8837817,63.5914322 C59.7631728,61.215898 61.2062767,58.3774219 62.2063813,55.0726246 C63.2064859,51.7695171 63.7065381,48.064292 63.7065381,43.9586391 C63.7065381,39.8479174 63.2064859,36.1224175 62.2063813,32.7787602 C61.2062767,29.4367926 59.7631728,26.5797312 57.8837817,24.2008178 C56.0060686,21.8252836 53.6836782,19.9904116 50.9266785,18.7046495 C48.1646447,17.4155083 45.0636493,16.7717824 41.6253704,16.7717824 C38.1031901,16.7717824 34.9837364,17.435783 32.2653314,18.7637844 C29.5435702,20.0934753 27.2413161,21.9469326 25.365281,24.3241564 C23.4842119,26.6996906 22.042786,29.5584415 21.0426815,32.9004091 C20.0425769,36.245756 19.5442027,39.9307063 19.5442027,43.9586391 Z M83.0256722,43.9586391 C83.0256722,51.1257913 81.9634807,57.4312632 79.8474875,62.8649175 C77.7247823,68.3036404 74.8234723,72.8553397 71.1452354,76.5183254 C67.4653204,80.18638 63.0839899,82.9437569 58.0045998,84.7955246 C52.9252096,86.6506715 47.4632291,87.5765554 41.6253704,87.5765554 C35.9435683,87.5765554 30.5856255,86.6506715 25.54483,84.7955246 C20.5040346,82.9437569 16.1025676,80.18638 12.3437853,76.5183254 C8.58164703,72.8553397 5.62496204,68.3036404 3.46366224,62.8649175 C1.30404046,57.4312632 0.221712537,51.1257913 0.221712537,43.9586391 C0.221712537,36.7881077 1.34263511,30.4843254 3.58280222,25.0489816 C5.8212913,19.6102586 8.84341936,15.0382844 12.6441523,11.3330594 C16.4415292,7.62783436 20.8429961,4.85018273 25.845197,2.9967254 C30.8423638,1.14157851 36.104659,0.214005069 41.6253704,0.214005069 C47.3038164,0.214005069 52.6634373,1.14157851 57.7059108,2.9967254 C62.7450282,4.85018273 67.1448171,7.62783436 70.9052775,11.3330594 C74.6640596,15.0382844 77.6257788,19.6102586 79.7854006,25.0489816 C81.9467003,30.4843254 83.0256722,36.7881077 83.0256722,43.9586391 Z" id="Fill-2"></path>
                <path d="M130.100728,71.5065566 C132.740266,71.5065566 134.920024,71.2869126 136.640003,70.8408664 C138.359981,70.3998889 139.740998,69.7967127 140.779697,69.0262691 C141.818396,68.2642735 142.539949,67.3586644 142.940997,66.3111316 C143.342046,65.2652883 143.541731,64.0961065 143.541731,62.8069653 C143.541731,60.0698632 142.259718,57.7906345 139.700725,55.981106 C137.140055,54.1665088 132.740266,52.2150565 126.501359,50.1166116 C123.779598,49.1535573 121.059515,48.0435103 118.339432,46.7966083 C115.619349,45.5497063 113.179496,43.9784071 111.019874,42.0844 C108.861931,40.1920827 107.100001,37.8959582 105.740799,35.1943372 C104.379918,32.4977848 103.700317,29.2166417 103.700317,25.3492179 C103.700317,21.4817942 104.420191,17.9979028 105.859939,14.8975433 C107.301365,11.7954945 109.340169,9.15976668 111.981384,6.98191208 C114.620922,4.80574706 117.819243,3.13814234 121.579703,1.96727094 C125.340164,0.801468252 129.578862,0.213498199 134.300832,0.213498199 C139.900411,0.213498199 144.741522,0.821743081 148.822485,2.02809543 C152.900092,3.23613735 156.261181,4.56751782 158.900719,6.01716811 L153.502503,20.878618 C151.180113,19.6705762 148.599306,18.6027685 145.761762,17.6751949 C142.92086,16.7510008 139.50104,16.2846796 135.5023,16.2846796 C131.020288,16.2846796 127.800152,16.9131993 125.840216,18.1601013 C123.880279,19.4086929 122.898633,21.3229748 122.898633,23.8978781 C122.898633,25.4303173 123.261087,26.721148 123.980961,27.7653018 C124.699157,28.8128347 125.721076,29.7589934 127.040006,30.6054675 C128.360614,31.450252 129.880907,32.2173165 131.602563,32.8999023 C133.319186,33.5858674 135.220391,34.2887281 137.302824,35.0135532 C141.620389,36.6270918 145.380849,38.2169763 148.582527,39.7882757 C151.780847,41.3595749 154.4422,43.1927573 156.563226,45.2861335 C158.680898,47.3795096 160.2616,49.8378327 161.303656,52.6577236 C162.340676,55.4793039 162.862543,58.9006815 162.862543,62.9252351 C162.862543,70.7394922 160.140782,76.8016662 154.700617,81.1100675 C149.26045,85.4218478 141.059928,87.5777381 130.100728,87.5777381 C126.420813,87.5777381 123.099996,87.3547149 120.139955,86.9120478 C117.179914,86.4660016 114.560513,85.9236499 112.280073,85.2799241 C110.001311,84.6361982 108.039697,83.9519228 106.398586,83.2270977 C104.759153,82.5005828 103.379814,81.817997 102.258891,81.1708919 L107.541323,66.1894826 C110.018092,67.5614127 113.078814,68.7880399 116.721813,69.8727432 C120.359777,70.9625154 124.821653,71.5065566 130.100728,71.5065566" id="Fill-4"></path>
                <polygon id="Fill-6" points="245.338952 2.15092711 245.338952 18.2221085 220.25747 18.2221085 220.25747 85.8842829 201.537392 85.8842829 201.537392 18.2221085 176.454232 18.2221085 176.454232 2.15092711"></polygon>
                <polygon id="Fill-8" points="266.131563 85.8863104 284.853318 85.8863104 284.853318 2.15126502 266.131563 2.15126502"></polygon>
                <path d="M368.652684,85.8844519 C363.293064,76.2995262 357.493798,66.8362497 351.251535,57.4895534 C345.009272,48.1445465 338.369316,39.3249957 331.331668,31.0275218 L331.331668,85.8844519 L312.849869,85.8844519 L312.849869,2.15109607 L328.089718,2.15109607 C330.727578,4.80709872 333.649023,8.06965667 336.850701,11.9370804 C340.0507,15.804504 343.307752,19.933811 346.630247,24.3233116 C349.949387,28.7128121 353.250066,33.2645113 356.530612,37.97503 C359.809477,42.6872382 362.890337,47.2169731 365.77151,51.5676136 L365.77151,2.15109607 L384.372449,2.15109607 L384.372449,85.8844519 L368.652684,85.8844519" id="Fill-10"></path>
                <path d="M452.926092,16.6508093 C444.210416,16.6508093 437.907743,19.0871679 434.026466,23.9598853 C430.146865,28.8342921 428.208744,35.4979527 428.208744,43.9593149 C428.208744,48.0632783 428.686981,51.7921573 429.646813,55.134125 C430.608323,58.4744032 432.04807,61.353429 433.966056,63.7712023 C435.889077,66.1889758 438.286978,68.0627079 441.168152,69.3923988 C444.047647,70.7204002 447.405381,71.3844008 451.246387,71.3844008 C453.325463,71.3844008 455.107528,71.3438511 456.589228,71.2644414 C458.06757,71.1850317 459.368041,71.0245225 460.487285,70.7812246 L460.487285,41.6631904 L479.209042,41.6631904 L479.209042,83.1066313 C476.967197,83.9936551 473.369506,84.9381243 468.407577,85.9434178 C463.449005,86.9487115 457.327559,87.4555823 450.046597,87.4555823 C443.807689,87.4555823 438.146024,86.4874591 433.068312,84.5562816 C427.985565,82.6200353 423.646185,79.8035237 420.045138,76.0966091 C416.449124,72.3930736 413.666955,67.8396848 411.707018,62.443201 C409.743726,57.0500964 408.767112,50.8865482 408.767112,43.9593149 C408.767112,36.9492926 409.847762,30.7468844 412.009062,25.3487111 C414.167007,19.9539169 417.123691,15.3785637 420.887507,11.6344786 C424.647967,7.88870383 429.066215,5.05022771 434.147283,3.11736064 C439.226673,1.182804 444.646703,0.212991328 450.407373,0.212991328 C454.327246,0.212991328 457.866206,0.47825368 461.027611,1.00033054 C464.187337,1.52578653 466.905743,2.12896271 469.186182,2.81492776 C471.468299,3.4975137 473.349369,4.20206401 474.82939,4.92857874 C476.311088,5.65340388 477.366567,6.21940953 478.009252,6.62152698 L472.609359,21.7228957 C470.047011,20.3543448 467.107105,19.1682672 463.789645,18.1595945 C460.46715,17.1526112 456.849321,16.6508093 452.926092,16.6508093" id="Fill-11"></path>
                <polygon id="Fill-12" points="505.403727 85.8844519 505.403727 2.15109607 561.56564 2.15109607 561.56564 17.9789796 524.123805 17.9789796 524.123805 34.4100392 557.365536 34.4100392 557.365536 49.8780444 524.123805 49.8780444 524.123805 70.0565684 564.327672 70.0565684 564.327672 85.8844519"></polygon>
                <path d="M612.360045,17.2538165 C610.999164,17.2538165 609.782594,17.2943662 608.700265,17.3737758 C607.622971,17.4565648 606.601053,17.5376641 605.639542,17.6153843 L605.639542,40.3299515 L610.921975,40.3299515 C617.959623,40.3299515 623.002096,39.4479964 626.041004,37.6739489 C629.083269,35.9049699 630.601884,32.8823308 630.601884,28.6111001 C630.601884,24.502068 629.061455,21.5858717 625.980596,19.8489947 C622.899736,18.1205654 618.360671,17.2538165 612.360045,17.2538165 M611.281072,1.18263504 C623.762243,1.18263504 633.320289,3.41624541 639.960245,7.88853487 C646.600201,12.3591348 649.922696,19.3066429 649.922696,28.732749 C649.922696,34.6107601 648.58363,39.3871719 645.902142,43.0518474 C643.224009,46.7148331 639.362867,49.5972381 634.322071,51.6889247 C636.003455,53.7856799 637.762028,56.1814889 639.601148,58.8797308 C641.440266,61.5796623 643.262605,64.3995531 645.063128,67.3394034 C646.861973,70.2792537 648.603767,73.3390634 650.283472,76.5188324 C651.9615,79.7036702 653.522066,82.8243043 654.960136,85.884114 L634.033452,85.884114 C632.506446,83.1453225 630.959304,80.3676708 629.39706,77.5477799 C627.829782,74.7295787 626.227266,71.9890976 624.577764,69.3297158 C622.936653,66.670334 621.303932,64.1562552 619.701416,61.780721 C618.092187,59.4018076 616.484636,57.2476071 614.88212,55.3113608 L605.639542,55.3113608 L605.639542,85.884114 L586.921143,85.884114 L586.921143,3.35542092 C591.000429,2.55456516 595.220668,1.98686995 599.580185,1.66754138 C603.9397,1.34314411 607.839438,1.18263504 611.281072,1.18263504" id="Fill-13"></path>
            </g>
            <path d="M0.00167010512,93.6401358 L0.00167010512,0.00335303239 L46.9433147,25.203068 L46.9433147,67.3909217 L109.084586,67.421099 L156.787798,93.6401358 L0.00167010512,93.6401358 Z M121.792416,59.6705645 L121.792416,0 L170,24.5726979 L170,87.8645375 L121.792416,59.6705645 Z M121.792416,174.117942 L121.792416,132.293893 L59.1718244,132.250304 C59.230278,132.528605 10.676982,105.612138 10.676982,105.612138 L170,106.364894 L170,200 L121.792416,174.117942 Z M0,174.117942 L0.00167010512,112.928455 L46.9433147,140.455174 L46.9433147,198.688965 L0,174.117942 Z" id="Fill-15"></path>
        </g>
    </g>
</svg>